<mxfile host="Electron" modified="2024-03-30T09:20:44.006Z" agent="Mozilla/5.0 (X11; Linux x86_64) AppleWebKit/537.36 (KHTML, like Gecko) draw.io/24.1.0 Chrome/120.0.6099.109 Electron/28.1.0 Safari/537.36" etag="J7tVGifSMxns9ueizaST" version="24.1.0" type="device">
  <diagram name="Page-1" id="e7e014a7-5840-1c2e-5031-d8a46d1fe8dd">
    <mxGraphModel dx="818" dy="531" grid="1" gridSize="10" guides="1" tooltips="1" connect="1" arrows="1" fold="1" page="1" pageScale="1" pageWidth="1169" pageHeight="826" background="none" math="0" shadow="0">
      <root>
        <mxCell id="0" />
        <mxCell id="1" parent="0" />
        <mxCell id="uXT9eWu6329VO5jyvQ90-51" style="edgeStyle=orthogonalEdgeStyle;rounded=0;orthogonalLoop=1;jettySize=auto;html=1;entryX=0.5;entryY=0;entryDx=0;entryDy=0;" parent="1" source="uXT9eWu6329VO5jyvQ90-41" target="uXT9eWu6329VO5jyvQ90-42" edge="1">
          <mxGeometry relative="1" as="geometry" />
        </mxCell>
        <mxCell id="uXT9eWu6329VO5jyvQ90-41" value="" style="ellipse;whiteSpace=wrap;html=1;aspect=fixed;" parent="1" vertex="1">
          <mxGeometry x="240" y="130" width="40" height="40" as="geometry" />
        </mxCell>
        <mxCell id="uXT9eWu6329VO5jyvQ90-50" style="edgeStyle=orthogonalEdgeStyle;rounded=0;orthogonalLoop=1;jettySize=auto;html=1;entryX=1;entryY=0;entryDx=0;entryDy=0;" parent="1" source="uXT9eWu6329VO5jyvQ90-42" target="uXT9eWu6329VO5jyvQ90-43" edge="1">
          <mxGeometry relative="1" as="geometry" />
        </mxCell>
        <mxCell id="uXT9eWu6329VO5jyvQ90-42" value="Enter&lt;br&gt;Credentials" style="rounded=1;whiteSpace=wrap;html=1;" parent="1" vertex="1">
          <mxGeometry x="215" y="200" width="90" height="40" as="geometry" />
        </mxCell>
        <mxCell id="uXT9eWu6329VO5jyvQ90-48" style="edgeStyle=orthogonalEdgeStyle;rounded=0;orthogonalLoop=1;jettySize=auto;html=1;entryX=0.5;entryY=0;entryDx=0;entryDy=0;" parent="1" source="uXT9eWu6329VO5jyvQ90-43" target="uXT9eWu6329VO5jyvQ90-45" edge="1">
          <mxGeometry relative="1" as="geometry" />
        </mxCell>
        <mxCell id="uXT9eWu6329VO5jyvQ90-53" value="Successful" style="edgeLabel;html=1;align=center;verticalAlign=middle;resizable=0;points=[];" parent="uXT9eWu6329VO5jyvQ90-48" vertex="1" connectable="0">
          <mxGeometry x="-0.0035" y="-1" relative="1" as="geometry">
            <mxPoint as="offset" />
          </mxGeometry>
        </mxCell>
        <mxCell id="uXT9eWu6329VO5jyvQ90-49" style="edgeStyle=orthogonalEdgeStyle;rounded=0;orthogonalLoop=1;jettySize=auto;html=1;entryX=0;entryY=0.5;entryDx=0;entryDy=0;" parent="1" source="uXT9eWu6329VO5jyvQ90-43" target="uXT9eWu6329VO5jyvQ90-44" edge="1">
          <mxGeometry relative="1" as="geometry" />
        </mxCell>
        <mxCell id="uXT9eWu6329VO5jyvQ90-52" value="Not&lt;br&gt;Successful" style="edgeLabel;html=1;align=center;verticalAlign=middle;resizable=0;points=[];labelBackgroundColor=default;" parent="uXT9eWu6329VO5jyvQ90-49" vertex="1" connectable="0">
          <mxGeometry x="-0.0025" y="-1" relative="1" as="geometry">
            <mxPoint as="offset" />
          </mxGeometry>
        </mxCell>
        <mxCell id="uXT9eWu6329VO5jyvQ90-43" value="" style="whiteSpace=wrap;html=1;aspect=fixed;rotation=-45;" parent="1" vertex="1">
          <mxGeometry x="240" y="283" width="40" height="40" as="geometry" />
        </mxCell>
        <mxCell id="uXT9eWu6329VO5jyvQ90-44" value="Display&lt;br&gt;Auth Error" style="rounded=1;whiteSpace=wrap;html=1;" parent="1" vertex="1">
          <mxGeometry x="400" y="283" width="90" height="40" as="geometry" />
        </mxCell>
        <mxCell id="uXT9eWu6329VO5jyvQ90-47" style="edgeStyle=orthogonalEdgeStyle;rounded=0;orthogonalLoop=1;jettySize=auto;html=1;entryX=0.5;entryY=0;entryDx=0;entryDy=0;" parent="1" source="uXT9eWu6329VO5jyvQ90-45" target="uXT9eWu6329VO5jyvQ90-46" edge="1">
          <mxGeometry relative="1" as="geometry" />
        </mxCell>
        <mxCell id="uXT9eWu6329VO5jyvQ90-45" value="Display&lt;br&gt;Auth Success" style="rounded=1;whiteSpace=wrap;html=1;" parent="1" vertex="1">
          <mxGeometry x="215" y="413" width="90" height="40" as="geometry" />
        </mxCell>
        <mxCell id="uXT9eWu6329VO5jyvQ90-55" style="edgeStyle=orthogonalEdgeStyle;rounded=0;orthogonalLoop=1;jettySize=auto;html=1;entryX=0.5;entryY=0;entryDx=0;entryDy=0;" parent="1" source="uXT9eWu6329VO5jyvQ90-46" target="uXT9eWu6329VO5jyvQ90-54" edge="1">
          <mxGeometry relative="1" as="geometry" />
        </mxCell>
        <mxCell id="uXT9eWu6329VO5jyvQ90-46" value="Redirect to&lt;br&gt;Profile Page" style="rounded=1;whiteSpace=wrap;html=1;" parent="1" vertex="1">
          <mxGeometry x="215" y="480" width="90" height="40" as="geometry" />
        </mxCell>
        <mxCell id="uXT9eWu6329VO5jyvQ90-54" value="" style="ellipse;whiteSpace=wrap;html=1;aspect=fixed;" parent="1" vertex="1">
          <mxGeometry x="240" y="560" width="40" height="40" as="geometry" />
        </mxCell>
      </root>
    </mxGraphModel>
  </diagram>
</mxfile>
